<svg width="20" height="20" viewBox="0 0 20 20" fill="none" xmlns="http://www.w3.org/2000/svg">
<g clip-path="url(#clip0_63_442)">
<path d="M10 0.5625C4.78125 0.5625 0.5625 4.78125 0.5625 10C0.5625 15.2188 4.78125 19.4688 10 19.4688C15.2188 19.4688 19.4688 15.2188 19.4688 10C19.4688 4.78125 15.2188 0.5625 10 0.5625ZM10 18.0625C5.5625 18.0625 1.96875 14.4375 1.96875 10C1.96875 5.5625 5.5625 1.96875 10 1.96875C14.4375 1.96875 18.0625 5.59375 18.0625 10.0312C18.0625 14.4375 14.4375 18.0625 10 18.0625Z" fill="#3C50E0"/>
<path d="M12.6875 7.0938L8.96874 10.7188L7.28124 9.06255C6.99999 8.7813 6.56249 8.81255 6.28124 9.06255C5.99999 9.3438 6.03124 9.7813 6.28124 10.0626L8.28124 12.0001C8.46874 12.1876 8.71874 12.2813 8.96874 12.2813C9.21874 12.2813 9.46874 12.1876 9.65624 12.0001L13.6875 8.12505C13.9687 7.8438 13.9687 7.4063 13.6875 7.12505C13.4062 6.8438 12.9687 6.8438 12.6875 7.0938Z" fill="#3C50E0"/>
</g>
<defs>
<clipPath id="clip0_63_442">
<rect width="20" height="20" fill="white"/>
</clipPath>
</defs>
</svg>
